# xmcd CD database file
#
# Track frame offsets:
#	150
#	11881
#	17409
#	39812
#	49098
#	55795
#	64931
#	76602
#	89960
#	100678
#	110967
#	120657
#	132639
#	140933
#	153883
#	170521
#	178069
#	188964
#	202984
#	216102
#	225476
#	239545
#
# Disc length: 3396 seconds
#
# Revision: 0
# Processed by: cddbd v1.5.2PL0 Copyright (c) Steve Scherf et al.
# Submitted via: CDex 1.70beta2
#
DISCID=370d4216
DTITLE=Various Artist - こどもとききたい童謡 ～うつくしい世界のうた～
DYEAR=2007
DGENRE=Country
TTITLE0=エーデルワイス
TTITLE1=静かな湖畔
TTITLE2=星に願いを
TTITLE3=幸せなら手をたたこう
TTITLE4=ロンドン橋
TTITLE5=手をたたきましょう
TTITLE6=ウンパッパ（「オリバー！」より）
TTITLE7=星かげさやかに ～燃えろよ燃えろ
TTITLE8=チム・チム・チェリー
TTITLE9=カチューシャ
TTITLE10=サモア島のうた
TTITLE11=ハイ・ホー（「白雪姫」より）
TTITLE12=グリーン・グリーン
TTITLE13=遠き山に日はおちて（家路）
TTITLE14=夢路より
TTITLE15=森へ行きましょう
TTITLE16=ローレライ
TTITLE17=埴生の宿
TTITLE18=大きな古時計
TTITLE19=ママがサンタにキッスした
TTITLE20=もみの木
TTITLE21=きよしこの夜
EXTD=YEAR: 2007
EXTT0=
EXTT1=
EXTT2=
EXTT3=
EXTT4=
EXTT5=
EXTT6=
EXTT7=
EXTT8=
EXTT9=
EXTT10=
EXTT11=
EXTT12=
EXTT13=
EXTT14=
EXTT15=
EXTT16=
EXTT17=
EXTT18=
EXTT19=
EXTT20=
EXTT21=
PLAYORDER=
